<svg width="834" height="725" viewBox="0 0 834 725" fill="none" xmlns="http://www.w3.org/2000/svg">
<path d="M384.264 18.7448L5.22321 667.504C-9.51079 692.723 8.67821 724.416 37.8852 724.416H795.967C825.174 724.416 843.363 692.723 828.629 667.504L449.588 18.7448C434.986 -6.24825 398.867 -6.24825 384.264 18.7448Z" fill="#F7D614"/>
<path d="M765.079 692.416H68.7742C60.3602 692.416 52.5322 687.883 48.3442 680.586C44.1562 673.288 44.1912 664.242 48.4352 656.978L396.587 61.0868C400.795 53.8868 408.588 49.4148 416.926 49.4148C425.264 49.4148 433.057 53.8867 437.264 61.0857L785.417 656.978C789.661 664.243 789.696 673.29 785.509 680.586C781.321 687.882 773.493 692.416 765.079 692.416ZM79.5192 675.137C79.5242 675.128 79.5302 675.118 79.5352 675.109L79.5192 675.137ZM90.4572 656.416H743.395L416.927 97.6367L90.4572 656.416Z" fill="black"/>
<path d="M416.954 606.614C440.462 606.614 459.519 587.557 459.519 564.049C459.519 540.541 440.462 521.484 416.954 521.484C393.446 521.484 374.389 540.541 374.389 564.049C374.389 587.557 393.446 606.614 416.954 606.614Z" fill="black"/>
<path d="M469.084 301.109L431.316 501.905C426.706 500.852 421.896 500.287 416.954 500.287C412.012 500.287 407.202 500.852 402.592 501.905L364.824 301.109C359.405 272.318 378.355 244.59 407.146 239.171C435.937 233.763 463.665 252.702 469.084 281.494C470.325 288.11 470.236 294.859 469.084 301.109Z" fill="black"/>
</svg>
