<svg width="834" height="725" viewBox="0 0 834 725" fill="none" xmlns="http://www.w3.org/2000/svg">
<path d="M416.926 0C404.246 0 391.565 6.248 384.264 18.745L5.22321 667.504C-9.51079 692.723 8.6782 724.416 37.8852 724.416H795.967C825.174 724.416 843.363 692.723 828.629 667.504L449.588 18.745C442.287 6.24899 429.607 0 416.926 0Z" fill="#C5222C"/>
<path d="M416.94 607.234C440.448 607.234 459.505 588.177 459.505 564.669C459.505 541.161 440.448 522.104 416.94 522.104C393.432 522.104 374.375 541.161 374.375 564.669C374.375 588.177 393.432 607.234 416.94 607.234Z" fill="white"/>
<path d="M469.07 301.729L431.302 502.525C426.692 501.472 421.882 500.907 416.94 500.907C411.998 500.907 407.188 501.472 402.578 502.525L364.81 301.729C359.391 272.938 378.341 245.21 407.133 239.791C435.924 234.383 463.652 253.322 469.071 282.113C470.311 288.73 470.222 295.479 469.07 301.729Z" fill="white"/>
</svg>
