<svg width="78" height="44" viewBox="0 0 78 44" fill="none" xmlns="http://www.w3.org/2000/svg">
<path d="M18.113 16.6279V36.4829C18.113 38.7519 34.071 43.5909 38.618 43.5909C43.165 43.5909 59.122 38.7519 59.122 36.4829V16.6279H18.113Z" fill="#184F78"/>
<path opacity="0.3" d="M18.113 25.8289L38.616 33.5679L59.122 25.8289V18.6279H18.113V25.8289Z" fill="black"/>
<path d="M38.616 0L0 14.575L38.616 29.151L77.234 14.575L38.616 0Z" fill="#184F78"/>
<path d="M38.616 29.1509L0 14.575V16.575L38.616 31.1509L77.234 16.575V14.575L38.616 29.1509Z" fill="#467293"/>
<path d="M61.558 32.7161H61.419H59.977H59.837C59.837 32.7161 56.057 38.0541 58.544 43.4081C59.125 43.4081 59.588 43.4081 59.96 43.4081H59.966C59.996 43.4081 60.213 43.4081 61.43 43.4081H61.435C61.807 43.4081 62.27 43.4081 62.851 43.4081C65.338 38.0541 61.558 32.7161 61.558 32.7161Z" fill="#FDC00F"/>
<path d="M62.0592 42.5261C62.1492 42.0391 62.1042 41.4491 62.1342 40.8331C62.1492 40.5231 62.1442 40.2061 62.1042 39.8851C62.0772 39.5641 62.0492 39.2371 62.0202 38.9111C62.0042 38.5861 61.9282 38.2691 61.8782 37.9541C61.8222 37.6431 61.7672 37.3361 61.7132 37.0391C61.5572 36.4611 61.4522 35.9101 61.2952 35.4651C61.0272 34.5551 60.7742 33.9941 60.7742 33.9941C60.7742 33.9941 60.9862 34.5831 61.1852 35.5121C61.3082 35.9671 61.3732 36.5261 61.4832 37.1071C61.5142 37.4021 61.5462 37.7091 61.5792 38.0191C61.6052 38.3301 61.6572 38.6421 61.6492 38.9601C61.6532 39.2751 61.6582 39.5931 61.6622 39.9031C61.6792 40.2131 61.6602 40.5171 61.6252 40.8101C61.5522 41.3891 61.5602 41.9451 61.4392 42.3881C61.3442 42.8071 61.2672 43.1511 61.2092 43.4081C61.2822 43.4081 61.3472 43.4081 61.4292 43.4081H61.4342C61.5792 43.4081 61.7502 43.4081 61.9262 43.4081C61.9642 43.1591 62.0072 42.8721 62.0592 42.5261Z" fill="#FED96F"/>
<path d="M59.9551 42.3891C59.8351 41.9461 59.8421 41.3901 59.7701 40.8111C59.7341 40.5181 59.7161 40.2141 59.7321 39.9041C59.7361 39.5931 59.7401 39.2761 59.7451 38.9611C59.7371 38.6431 59.7891 38.3301 59.8151 38.0201C59.8481 37.7091 59.8801 37.4031 59.9121 37.1081C60.0211 36.5271 60.0881 35.9681 60.2101 35.5131C60.4081 34.5841 60.6201 33.9951 60.6201 33.9951C60.6201 33.9951 60.3661 34.5561 60.0991 35.4661C59.9421 35.9111 59.8361 36.4621 59.6811 37.0401C59.6271 37.3371 59.5721 37.6441 59.5161 37.9551C59.4661 38.2701 59.3901 38.5851 59.3741 38.9121C59.3451 39.2381 59.3171 39.5641 59.2891 39.8861C59.2501 40.2071 59.2461 40.5251 59.2601 40.8341C59.2901 41.4501 59.2441 42.0401 59.3351 42.5271C59.3871 42.8731 59.4301 43.1601 59.4671 43.4091C59.6411 43.4091 59.8131 43.4091 59.9581 43.4091H59.9641C59.9771 43.4091 60.0321 43.4091 60.1841 43.4091C60.1281 43.1511 60.0501 42.8081 59.9551 42.3891Z" fill="#FED96F"/>
<path d="M63.275 41.7541C63.328 41.4461 63.3541 41.1191 63.3481 40.7791C63.3681 40.4381 63.34 40.0911 63.303 39.7401C63.287 39.3871 63.1971 39.0451 63.1401 38.6971C62.8431 37.3211 62.248 36.1161 61.757 35.2871C61.256 34.4621 60.8521 33.9951 60.8521 33.9951C60.8521 33.9951 61.224 34.5041 61.662 35.3721C62.091 36.2401 62.5871 37.4811 62.7771 38.8051C62.8081 39.1371 62.8721 39.4631 62.8631 39.7901C62.8741 40.1171 62.8791 40.4351 62.8391 40.7411C62.8241 41.0481 62.7821 41.3371 62.7141 41.6051C62.6641 41.8771 62.6091 42.1301 62.5201 42.3501C62.3861 42.8061 62.22 43.1521 62.093 43.3871C62.088 43.3971 62.087 43.4011 62.082 43.4081C62.312 43.4081 62.5661 43.4081 62.8501 43.4081C62.9021 43.2961 62.937 43.1831 62.983 43.0701C63.028 42.9231 63.0741 42.7851 63.1121 42.6121C63.1941 42.3561 63.24 42.0651 63.275 41.7541Z" fill="#FED96F"/>
<path d="M60.6981 33.9941L60.3481 43.4081C60.5081 43.4081 60.7291 43.4081 61.0471 43.4081L60.6981 33.9941Z" fill="#FED96F"/>
<path d="M59.3021 43.3871C59.1751 43.1521 59.0091 42.8061 58.8751 42.3501C58.7871 42.1301 58.7301 41.8771 58.6811 41.6051C58.6131 41.3361 58.5701 41.0471 58.5561 40.7411C58.5161 40.4341 58.5201 40.1171 58.5321 39.7901C58.5231 39.4631 58.5881 39.1371 58.6181 38.8051C58.8081 37.4821 59.3051 36.2411 59.7331 35.3721C60.1711 34.5041 60.5431 33.9951 60.5431 33.9951C60.5431 33.9951 60.1391 34.4621 59.6381 35.2871C59.1471 36.1161 58.5531 37.3211 58.2561 38.6971C58.1991 39.0451 58.1091 39.3871 58.0921 39.7401C58.0551 40.0921 58.0281 40.4381 58.0481 40.7791C58.0421 41.1201 58.0681 41.4471 58.1221 41.7541C58.1571 42.0661 58.2031 42.3571 58.2821 42.6121C58.3211 42.7861 58.3671 42.9261 58.4111 43.0721C58.4581 43.1841 58.4921 43.2961 58.5431 43.4081C58.8271 43.4081 59.0811 43.4081 59.3111 43.4081C59.3081 43.4001 59.3071 43.3961 59.3021 43.3871Z" fill="#FED96F"/>
<path d="M58.75 32.716C58.75 31.64 59.622 30.769 60.697 30.769C61.773 30.769 62.645 31.64 62.645 32.716C62.645 33.792 61.773 34.663 60.697 34.663C59.622 34.663 58.75 33.792 58.75 32.716Z" fill="#FED96F"/>
<path opacity="0.3" d="M38.617 18.214C42.0069 18.214 44.755 16.5852 44.755 14.576C44.755 12.5668 42.0069 10.938 38.617 10.938C35.2271 10.938 32.479 12.5668 32.479 14.576C32.479 16.5852 35.2271 18.214 38.617 18.214Z" fill="black"/>
<path d="M44.63 15.3101C44.423 15.9071 43.968 16.4511 43.334 16.9021L43.304 17.0031L59.699 21.8491V32.7151H61.699V20.3551L44.63 15.3101Z" fill="#FDC00F"/>
<path d="M32.479 14.07C32.479 12.34 34.845 10.938 37.763 10.938C40.681 10.938 43.047 12.339 43.047 14.07C43.047 15.799 40.681 17.201 37.763 17.201C34.845 17.201 32.479 15.8 32.479 14.07Z" fill="#184F78"/>
</svg>
