<svg width="1740" height="1632" viewBox="0 0 1740 1632" fill="none" xmlns="http://www.w3.org/2000/svg">
<path d="M1739.03 501.506C1739.03 727.774 1579.94 915.405 1380.62 915.405C1587.72 839.208 1640.68 686.382 1640.68 530.156C1640.68 415.537 1590.62 312.612 1511.19 242.047C1540.76 229.439 1591.97 246.582 1617.11 261.48C1745.21 337.388 1738.59 493.437 1739.02 501.167C1739.03 501.398 1739.03 501.506 1739.03 501.506Z" fill="#3677D6"/>
<path d="M1738.42 480.192C1738.05 473.606 1728.63 332.591 1576.16 295.65C1557.92 291.223 1537.62 288.286 1515.05 287.256C1330.92 278.829 1144.17 313.688 982.045 392.842C1031.91 492.641 1069.55 559.302 1069.55 559.302C761.964 550.491 381.1 594.26 381.1 594.26C573.653 219.795 811.223 0 811.223 0C826.905 44.207 844.252 88.709 862.323 132.27C1003.02 66.705 1167.63 41.588 1315.78 51.111C1322.67 51.56 1329.77 52.086 1337.05 52.7C1557.79 71.341 1730.32 252.168 1738.21 473.552C1738.29 475.764 1738.36 477.967 1738.42 480.192Z" fill="#3AA6EF"/>
<path d="M0 1129.64C0 903.372 159.088 715.741 358.413 715.741C151.317 791.938 98.354 944.764 98.354 1100.99C98.354 1215.61 148.408 1318.53 227.837 1389.1C198.272 1401.71 147.061 1384.56 121.92 1369.66C-6.181 1293.76 0.438999 1137.71 0.0149994 1129.98C-6.10016e-07 1129.75 0 1129.64 0 1129.64Z" fill="#3677D6"/>
<path d="M0.616943 1150.95C0.978943 1157.54 10.4029 1298.55 162.869 1335.5C181.115 1339.92 201.41 1342.86 223.985 1343.89C408.11 1352.32 594.866 1317.46 756.987 1238.3C707.126 1138.5 669.483 1071.84 669.483 1071.84C977.067 1080.65 1357.93 1036.89 1357.93 1036.89C1165.38 1411.35 927.809 1631.15 927.809 1631.15C912.127 1586.94 894.78 1542.44 876.709 1498.88C736.012 1564.44 571.404 1589.56 423.255 1580.04C416.362 1579.59 409.261 1579.06 401.984 1578.45C181.246 1559.81 8.71494 1378.98 0.823944 1157.59C0.737944 1155.38 0.671943 1153.18 0.616943 1150.95Z" fill="#3AA6EF"/>
</svg>
