<svg width="56" height="56" viewBox="0 0 56 56" fill="none" xmlns="http://www.w3.org/2000/svg">
<path d="M55.245 27.623C55.245 42.878 42.878 55.246 27.622 55.246C12.367 55.246 0 42.879 0 27.623C0 12.367 12.367 0 27.622 0C42.877 0 55.245 12.367 55.245 27.623Z" fill="#1CA59E"/>
<path d="M45.066 10.5088L10.5081 45.0668C13.4761 47.9808 17.1811 50.1418 21.3181 51.2468L51.246 21.3188C50.141 17.1818 47.98 13.4758 45.066 10.5088Z" fill="white"/>
<path d="M21.3181 51.2468C23.3291 51.7838 25.4411 52.0758 27.6221 52.0758C41.1271 52.0758 52.0751 41.1278 52.0751 27.6228C52.0751 25.4418 51.7841 23.3308 51.2461 21.3188L21.3181 51.2468Z" fill="#F9F0D9"/>
<path d="M45.0659 10.5092C43.2399 8.64916 41.1249 7.07216 38.7849 5.86816L5.86792 38.7852C7.07192 41.1262 8.64891 43.2402 10.5089 45.0662L45.0659 10.5092Z" fill="#F9F0D9"/>
<path d="M38.7849 5.86795C35.4369 4.14695 31.6449 3.16895 27.6219 3.16895C14.1169 3.16895 3.16992 14.1169 3.16992 27.6219C3.16992 31.6449 4.14792 35.4379 5.86792 38.7849L38.7849 5.86795Z" fill="white"/>
<path d="M27.622 9.88609C28.6272 9.88609 29.442 9.07125 29.442 8.06609C29.442 7.06094 28.6272 6.24609 27.622 6.24609C26.6169 6.24609 25.802 7.06094 25.802 8.06609C25.802 9.07125 26.6169 9.88609 27.622 9.88609Z" fill="#1CA59E"/>
<path d="M29.442 46.8762C29.442 47.8812 28.628 48.6962 27.622 48.6962C26.617 48.6962 25.802 47.8812 25.802 46.8762C25.802 45.8712 26.617 45.0562 27.622 45.0562C28.627 45.0552 29.442 45.8702 29.442 46.8762Z" fill="#1CA59E"/>
<path d="M47.027 29.2909C48.0322 29.2909 48.847 28.476 48.847 27.4709C48.847 26.4657 48.0322 25.6509 47.027 25.6509C46.0219 25.6509 45.207 26.4657 45.207 27.4709C45.207 28.476 46.0219 29.2909 47.027 29.2909Z" fill="#1CA59E"/>
<path d="M8.21698 29.2909C9.22214 29.2909 10.037 28.476 10.037 27.4709C10.037 26.4657 9.22214 25.6509 8.21698 25.6509C7.21182 25.6509 6.39697 26.4657 6.39697 27.4709C6.39697 28.476 7.21182 29.2909 8.21698 29.2909Z" fill="#1CA59E"/>
<path d="M21.572 15.2148L26.282 30.5888C26.48 31.2348 27.165 31.5988 27.811 31.4008C28.458 31.2028 28.822 30.5178 28.624 29.8708L23.914 14.4968C23.716 13.8498 23.031 13.4858 22.385 13.6838C21.738 13.8828 21.374 14.5668 21.572 15.2148Z" fill="#493324"/>
<path d="M36.1086 8.65647L24.2334 36.8062L24.9383 37.1035L36.8134 8.95382L36.1086 8.65647Z" fill="#493324"/>
<path d="M46.729 30.64H26.944C26.562 30.64 26.25 30.327 26.25 29.946C26.25 29.564 26.563 29.252 26.944 29.252H46.729C47.111 29.252 47.422 29.565 47.422 29.946C47.422 30.328 47.111 30.64 46.729 30.64Z" fill="#493324"/>
<path d="M29.2739 29.708C29.2739 30.721 28.4539 31.542 27.4409 31.542C26.4279 31.542 25.6069 30.721 25.6069 29.708C25.6069 28.695 26.4279 27.874 27.4409 27.874C28.4539 27.874 29.2739 28.695 29.2739 29.708Z" fill="#493324"/>
<path d="M28.4809 29.708C28.4809 30.282 28.0149 30.748 27.4409 30.748C26.8659 30.748 26.3999 30.282 26.3999 29.708C26.3999 29.133 26.8659 28.668 27.4409 28.668C28.0149 28.668 28.4809 29.133 28.4809 29.708Z" fill="white"/>
<path d="M37.2642 10.9851C37.2642 11.7391 37.8752 12.3501 38.6292 12.3501C39.3832 12.3501 39.9942 11.7391 39.9942 10.9851C39.9942 10.2311 39.3832 9.62012 38.6292 9.62012C37.8752 9.62012 37.2642 10.2311 37.2642 10.9851Z" fill="#1CA59E"/>
<path d="M43.3862 18.1892C43.3862 18.9432 43.9972 19.5542 44.7512 19.5542C45.5052 19.5542 46.1162 18.9432 46.1162 18.1892C46.1162 17.4352 45.5052 16.8242 44.7512 16.8242C43.9972 16.8242 43.3862 17.4352 43.3862 18.1892Z" fill="#1CA59E"/>
<path d="M18.9942 10.9851C18.9942 11.7391 18.3842 12.3501 17.6292 12.3501C16.8752 12.3501 16.2642 11.7391 16.2642 10.9851C16.2642 10.2311 16.8752 9.62012 17.6292 9.62012C18.3832 9.62012 18.9942 10.2311 18.9942 10.9851Z" fill="#1CA59E"/>
<path d="M12.8721 18.1892C12.8721 18.9432 12.2621 19.5542 11.5081 19.5542C10.7531 19.5542 10.1431 18.9432 10.1431 18.1892C10.1431 17.4352 10.7531 16.8242 11.5081 16.8242C12.2611 16.8232 12.8721 17.4352 12.8721 18.1892Z" fill="#1CA59E"/>
<path d="M18.9942 42.763C18.9942 42.009 18.3842 41.3979 17.6292 41.3979C16.8752 41.3979 16.2642 42.009 16.2642 42.763C16.2642 43.517 16.8752 44.128 17.6292 44.128C18.3832 44.128 18.9942 43.517 18.9942 42.763Z" fill="#1CA59E"/>
<path d="M12.8721 35.5588C12.8721 34.8048 12.2621 34.1938 11.5081 34.1938C10.7531 34.1938 10.1431 34.8048 10.1431 35.5588C10.1431 36.3128 10.7531 36.9238 11.5081 36.9238C12.2611 36.9248 12.8721 36.3128 12.8721 35.5588Z" fill="#1CA59E"/>
<path d="M37.2642 42.763C37.2642 42.009 37.8752 41.3979 38.6292 41.3979C39.3832 41.3979 39.9942 42.009 39.9942 42.763C39.9942 43.517 39.3832 44.128 38.6292 44.128C37.8752 44.128 37.2642 43.517 37.2642 42.763Z" fill="#1CA59E"/>
<path d="M43.3862 35.5588C43.3862 34.8048 43.9972 34.1938 44.7512 34.1938C45.5052 34.1938 46.1162 34.8048 46.1162 35.5588C46.1162 36.3128 45.5052 36.9238 44.7512 36.9238C43.9972 36.9238 43.3862 36.3128 43.3862 35.5588Z" fill="#1CA59E"/>
</svg>
