<svg width="69" height="60" viewBox="0 0 69 60" fill="none" xmlns="http://www.w3.org/2000/svg">
<path d="M64.883 59.3098H4.054C1.815 59.3098 0 57.4948 0 55.2558V26.3347C0 24.0957 1.815 22.2808 4.054 22.2808H64.883C67.122 22.2808 68.937 24.0957 68.937 26.3347V55.2558C68.938 57.4948 67.122 59.3098 64.883 59.3098Z" fill="#663F30"/>
<path d="M20.0579 30.8242H11.8569V39.9572H20.0579V30.8242Z" fill="#452B20"/>
<path d="M34.469 30.2091C15.433 30.2091 0.000976562 31.5881 0.000976562 28.0801V29.2621C0.000976562 32.7701 15.433 31.3911 34.469 31.3911C53.505 31.3911 68.938 32.7701 68.938 29.2621V28.0801C68.938 31.5891 53.506 30.2091 34.469 30.2091Z" fill="#3D261D"/>
<path d="M2.03897 7.31201C0.912971 7.31201 0.000976562 8.22501 0.000976562 9.35101V29.018C0.000976562 32.526 15.433 30.209 34.469 30.209C53.505 30.209 68.938 32.526 68.938 29.018V9.35101C68.938 8.22501 68.025 7.31201 66.9 7.31201H2.03897Z" fill="#663F30"/>
<path d="M19.1469 30.8418H12.7439V33.9968H19.1469V30.8418Z" fill="#FF9F42"/>
<path d="M18.4328 33.9956H13.4568V38.1096H18.4328V33.9956Z" fill="#FF9F42"/>
<path d="M18.4328 33.9956H13.4568V35.4016H18.4328V33.9956Z" fill="#B06E2E"/>
<path d="M57.7679 30.8242H49.5669V39.9572H57.7679V30.8242Z" fill="#452B20"/>
<path d="M56.8571 30.8418H50.4541V33.9968H56.8571V30.8418Z" fill="#FF9F42"/>
<path d="M56.143 33.9956H51.167V38.1096H56.143V33.9956Z" fill="#FF9F42"/>
<path d="M56.143 33.9956H51.167V35.4016H56.143V33.9956Z" fill="#B06E2E"/>
<path d="M64.8009 14.9941H3.93994V16.0282H64.8009V14.9941Z" fill="#1C110D"/>
<path d="M64.0629 16.0283H61.2559V16.9143H64.0629V16.0283Z" fill="#FF9F42"/>
<path d="M63.4158 16.9146H61.9019V19.1306H63.4158V16.9146Z" fill="#FF9F42"/>
<path d="M63.4158 16.9146H61.9019V17.6285H63.4158V16.9146Z" fill="#B06E2E"/>
<path d="M24.8181 0H23.8591C22.5941 0 21.5681 1.02599 21.5681 2.29099V7.31299H24.8181V0Z" fill="#3D261D"/>
<path d="M45.0061 0H44.0471V7.31201H47.2971V2.29001C47.2961 1.02601 46.2711 0 45.0061 0Z" fill="#3D261D"/>
<path d="M44.0461 0H24.8181V3.65601H44.0461V0Z" fill="#8A5541"/>
<path d="M65.918 59.3101H60.4189C60.4189 54.6601 64.2869 50.8901 68.9379 50.8901V56.2911C68.9379 57.9581 67.586 59.3101 65.918 59.3101Z" fill="#3D261D"/>
<path d="M3.02 59.3101H8.51901C8.51901 54.6601 4.651 50.8901 0 50.8901V56.2911C0.001 57.9581 1.353 59.3101 3.02 59.3101Z" fill="#3D261D"/>
</svg>
