<svg width="618" height="573" viewBox="0 0 618 573" fill="none" xmlns="http://www.w3.org/2000/svg">
<path d="M376.498 0H209.769H43.05C19.27 0 0 19.279 0 43.039V209.768V376.497C0 400.267 19.269 419.536 43.05 419.536H209.769H376.498C400.268 419.536 419.537 400.267 419.537 376.497V209.768V43.04C419.537 19.269 400.268 0 376.498 0Z" fill="#FAD851"/>
<path d="M334.258 215.158C344.327 222.216 350.911 233.904 350.911 247.132C350.911 268.859 333.152 286.43 311.356 286.134C289.876 285.838 272.551 267.961 272.897 246.48C273.114 233.519 279.649 222.088 289.55 215.148C291.929 213.49 290.784 209.768 287.882 209.768H209.769V131.655C209.769 128.753 213.491 127.608 215.149 129.987C222.089 139.898 233.52 146.433 246.481 146.64C267.961 146.995 285.839 129.661 286.135 108.181C286.431 86.385 268.86 68.636 247.133 68.636C233.905 68.636 222.217 75.21 215.159 85.279C213.491 87.658 209.769 86.523 209.769 83.621V0H376.498C400.268 0 419.537 19.269 419.537 43.039V209.768H335.916C333.014 209.768 331.879 213.49 334.258 215.158Z" fill="#275ED4"/>
<path d="M133.404 311.355C133.108 333.151 150.689 350.91 172.406 350.91C185.644 350.91 197.331 344.326 204.38 334.257C206.048 331.878 209.77 333.013 209.77 335.915V419.536H43.0509C19.2709 419.536 0.000976562 400.267 0.000976562 376.497V209.768H83.6219C86.5239 209.768 87.6589 206.047 85.2799 204.378C75.2109 197.33 68.627 185.642 68.627 172.404C68.627 150.687 86.3859 133.106 108.182 133.402C129.662 133.698 146.996 151.585 146.641 173.056C146.434 186.027 139.899 197.448 129.988 204.388C127.609 206.046 128.754 209.768 131.656 209.768H209.769V287.881C209.769 290.783 206.047 291.928 204.389 289.549C197.449 279.648 186.028 273.113 173.057 272.896C151.587 272.551 133.7 289.875 133.404 311.355Z" fill="#275ED4"/>
<path d="M467.197 572.386C549.978 572.386 617.086 505.278 617.086 422.497C617.086 339.716 549.978 272.608 467.197 272.608C384.416 272.608 317.308 339.716 317.308 422.497C317.308 505.278 384.416 572.386 467.197 572.386Z" fill="#49E038"/>
<path d="M545.735 394.285L453.481 486.539L388.659 421.716L415.251 395.128L453.481 433.359L519.143 367.693L545.735 394.285Z" fill="white"/>
</svg>
