<svg width="70" height="71" viewBox="0 0 70 71" fill="none" xmlns="http://www.w3.org/2000/svg">
<path d="M16.037 40.2451L0 66.9711H34.747V40.2451H16.037Z" fill="#8BC94D"/>
<path d="M53.4561 40.2451L69.4931 66.9711H34.7471V40.2451H53.4561Z" fill="#6EBB20"/>
<path d="M69.493 66.9712H0V70.5712H69.493V66.9712Z" fill="#B36F44"/>
<path d="M6.8719 55.518L34.7469 52.478L58.7979 49.147L60.8109 52.503L39.4919 57.49L30.9699 66.971H24.4039L32.4209 58.264L3.03491 61.913L6.8719 55.518Z" fill="#EBEBEB"/>
<path d="M41.2851 54.945C41.2851 56.078 38.5811 56.997 35.2451 56.997C31.9101 56.997 29.2061 56.078 29.2061 54.945C29.2061 53.815 31.9101 52.896 35.2451 52.896C38.5811 52.896 41.2851 53.815 41.2851 54.945Z" fill="#CCCCCC"/>
<path d="M53.6858 18.942C53.6858 8.48196 45.2058 0.000976562 34.7458 0.000976562V8.74298C40.3778 8.74298 44.9438 13.312 44.9438 18.943C44.9438 24.577 40.3778 29.143 34.7458 29.143V37.881V55.302C34.7458 55.302 43.6828 41.016 47.0548 36.206C54.5408 25.513 53.6858 18.942 53.6858 18.942Z" fill="#ED4520"/>
<path d="M34.7469 8.742V0C24.2869 0 15.8069 8.48201 15.8069 18.941C15.8069 18.941 14.9519 25.513 22.4389 36.204C25.8099 41.014 34.7459 55.3 34.7459 55.3V37.879V29.141C29.1139 29.141 24.5479 24.575 24.5479 18.941C24.5489 13.311 29.1139 8.742 34.7469 8.742Z" fill="#F16A4D"/>
</svg>
